<?xml version="1.0" standalone="no"?>
<!DOCTYPE svg PUBLIC "-//W3C//DTD SVG 20010904//EN"
 "http://www.w3.org/TR/2001/REC-SVG-20010904/DTD/svg10.dtd">
<svg version="1.0" xmlns="http://www.w3.org/2000/svg"
 width="143.000000pt" height="135.000000pt" viewBox="0 0 143.000000 135.000000"
 preserveAspectRatio="xMidYMid meet">

<g transform="translate(0.000000,135.000000) scale(0.100000,-0.100000)"
fill="#000000" stroke="none">
<path d="M240 1196 c0 -13 -9 -35 -20 -48 -10 -14 -16 -29 -12 -32 4 -4 2 -6
-3 -5 -20 6 -85 -25 -85 -41 0 -13 1 -13 10 0 6 9 10 10 10 3 0 -6 -4 -15 -10
-18 -5 -3 -10 -38 -10 -77 l0 -71 38 7 c20 3 47 9 60 12 l22 6 0 -281 0 -281
90 0 90 0 0 425 0 425 -90 0 c-88 0 -90 -1 -90 -24z"/>
<path d="M625 1045 c-49 -17 -102 -76 -111 -122 -10 -53 1 -125 22 -140 10 -7
14 -13 10 -13 -5 0 2 -11 16 -25 44 -44 87 -55 217 -55 117 0 121 -1 147 -27
18 -18 29 -23 32 -15 2 7 10 12 18 12 8 0 14 4 14 10 0 5 -7 7 -15 4 -11 -5
-15 1 -15 19 0 19 6 27 23 30 l22 4 -22 2 c-13 0 -23 6 -23 11 0 16 -19 11
-37 -10 -16 -18 -30 -20 -146 -20 -97 0 -135 4 -159 16 -98 51 -125 172 -55
251 39 45 76 63 127 63 55 0 105 -25 138 -67 22 -30 27 -47 30 -124 5 -101 22
-122 22 -26 0 85 -15 131 -57 178 -51 57 -119 72 -198 44z"/>
<path d="M634 1000 c-40 -16 -77 -77 -77 -126 0 -47 30 -102 53 -96 6 1 9 -2
5 -7 -9 -16 30 -31 77 -31 73 0 138 64 138 137 0 38 -37 101 -70 118 -32 16
-92 19 -126 5z m118 -59 c25 -22 32 -36 32 -66 0 -47 -48 -95 -95 -95 -45 0
-89 47 -89 95 0 27 8 44 29 66 39 38 80 39 123 0z"/>
<path d="M644 923 c-17 -17 -15 -18 40 -21 65 -3 75 1 56 23 -17 20 -75 19
-96 -2z"/>
<path d="M640 624 c0 -6 7 -19 16 -30 14 -18 14 -18 3 6 -14 31 -19 36 -19 24z"/>
<path d="M516 604 c-9 -8 -16 -18 -16 -22 0 -3 5 -1 12 6 9 9 15 9 27 -1 14
-10 14 -10 4 4 -7 9 -10 19 -6 22 3 4 4 7 0 7 -3 0 -13 -7 -21 -16z"/>
<path d="M580 606 c7 -7 13 -7 20 0 6 6 3 10 -10 10 -13 0 -16 -4 -10 -10z"/>
<path d="M712 600 c0 -14 2 -19 5 -12 2 6 2 18 0 25 -3 6 -5 1 -5 -13z"/>
<path d="M791 594 c0 -11 3 -14 6 -6 3 7 2 16 -1 19 -3 4 -6 -2 -5 -13z"/>
<path d="M821 594 c0 -11 3 -14 6 -6 3 7 2 16 -1 19 -3 4 -6 -2 -5 -13z"/>
<path d="M871 594 c0 -11 3 -14 6 -6 3 7 2 16 -1 19 -3 4 -6 -2 -5 -13z"/>
<path d="M996 247 c3 -10 9 -15 12 -12 3 3 0 11 -7 18 -10 9 -11 8 -5 -6z"/>
<path d="M825 150 c-10 -11 -14 -20 -9 -20 5 0 15 9 22 20 7 11 11 20 9 20 -2
0 -12 -9 -22 -20z"/>
<path d="M930 155 c-7 -9 -11 -17 -9 -20 3 -2 10 5 17 15 14 24 10 26 -8 5z"/>
<path d="M996 157 c3 -10 9 -15 12 -12 3 3 0 11 -7 18 -10 9 -11 8 -5 -6z"/>
</g>
</svg>
